<svg xmlns="http://www.w3.org/2000/svg" version="1.1" xmlns:xlink="http://www.w3.org/1999/xlink" width="512" height="512" x="0" y="0" viewBox="0 0 60 60" style="enable-background:new 0 0 512 512" xml:space="preserve" class=""><g><g fill="none"><path fill="#f0ebd8" d="M35.56 26.11A12.07 12.07 0 0 1 31 27c-5 0-6.29.15-8.39-.47a3 3 0 0 0-3.22-1.47A12 12 0 0 1 14 13.62l.64-5.54A8 8 0 0 1 22.59 1h11.74a8 8 0 0 1 8 7.08l.64 5.54a12 12 0 0 1-7.41 12.49z" opacity="1" data-original="#ff5722" class=""></path><path fill="#a9a490" d="m42.92 13.62-.64-5.54a8 8 0 0 0-8-7.08h-3a8 8 0 0 1 8 7.08l.64 5.54A12 12 0 0 1 28 27h-1.92H31a12 12 0 0 0 11.92-13.38z" opacity="1" data-original="#d84315" class=""></path><path fill="#02a9f4" d="M25.93 23A8 8 0 0 1 18 14.08l.64-5.54A4 4 0 0 1 22.6 5h11.74a4 4 0 0 1 4 3.54l.66 5.54A8 8 0 0 1 31 23z" opacity="1" data-original="#02a9f4" class=""></path><path fill="#0377bc" d="m39 14.08-.64-5.54a4 4 0 0 0-4-3.54h-3a4 4 0 0 1 4 3.54l.64 5.54A8 8 0 0 1 28 23h3a8 8 0 0 0 8-8.92z" opacity="1" data-original="#0377bc" class=""></path><path fill="#f0ebd8" d="M26.29 56.4a2.42 2.42 0 0 1-4.57 1.25A30.55 30.55 0 0 1 19 49h7.8a31.18 31.18 0 0 0-.51 7.4zM38 49a30.14 30.14 0 0 1-2.75 8.65 2.42 2.42 0 0 1-4.57-1.36 29.08 29.08 0 0 0-.47-7.29z" opacity="1" data-original="#ff9801" class=""></path><path fill="#a9a490" d="M35 49a30.14 30.14 0 0 1-2.75 8.65 2.69 2.69 0 0 1-.63.8 2.35 2.35 0 0 0 3.63-.8A30.14 30.14 0 0 0 38 49z" opacity="1" data-original="#f57c00" class=""></path><path fill="#f0ebd8" d="M38.16 31H20.59l.53-.21a3 3 0 0 0 1.67-3.9 2 2 0 0 0-.18-.36c2.1.62 3.38.47 8.39.47a12.07 12.07 0 0 0 4.56-.89 48.3 48.3 0 0 1 2.6 4.89z" opacity="1" data-original="#ff9801" class=""></path><path fill="#a9a490" d="M35.56 26.11a11.56 11.56 0 0 1-2.58.71c.72 1.18 1.51 2.72 2.18 4.18h3a48.3 48.3 0 0 0-2.6-4.89z" opacity="1" data-original="#f57c00" class=""></path><path fill="#3d5b75" d="m56.36 41.46-12.7 12.29A1 1 0 0 1 42 53v-3a1 1 0 0 0-1-1H5a2 2 0 0 1-2-2V33a2 2 0 0 1 2-2h2.17A3.07 3.07 0 0 0 7 32.42l1 7a3.03 3.03 0 0 0 6-.84l-.66-4.67L20.58 31H41a1 1 0 0 0 1-1v-3a1 1 0 0 1 1.66-.75l12.7 12.29a2 2 0 0 1 0 2.92z" opacity="1" data-original="#f44335" class=""></path><path fill="#203148" d="m4 32.42 1 7a3 3 0 0 0 4.46 2.17A3 3 0 0 1 8 39.42l-1-7A3.07 3.07 0 0 1 7.17 31H5a2 2 0 0 0-.88.21A3.08 3.08 0 0 0 4 32.42zM56.36 38.54l-12.7-12.29A1 1 0 0 0 42 27v.55l11.36 11a2 2 0 0 1 0 2.92L42 52.45V53a1 1 0 0 0 1.66.75l12.7-12.29a2 2 0 0 0 0-2.92z" opacity="1" data-original="#c81e1e" class=""></path><path fill="#f0ebd8" d="m21.12 30.79-.53.21-7.27 2.91.68 4.67a3.03 3.03 0 1 1-6 .84l-1-7A3.07 3.07 0 0 1 7.17 31a3 3 0 0 1 1.72-1.79l10-4c.163-.06.33-.11.5-.15a3 3 0 0 1 3.22 1.47 2 2 0 0 1 .18.36 3 3 0 0 1-1.67 3.9z" opacity="1" data-original="#ff9801" class=""></path><g fill="#000"><path d="M25.93 24H31a9 9 0 0 0 8.94-10l-.64-5.57a5 5 0 0 0-5-4.43H22.6a5 5 0 0 0-5 4.43L17 14a9 9 0 0 0 8.93 10zM19 14.2l.64-5.54A3 3 0 0 1 22.6 6h11.74a3 3 0 0 1 3 2.66L38 14.2a7 7 0 0 1-7 7.8h-5.07A7 7 0 0 1 19 14.2z" fill="#000000" opacity="1" data-original="#000000" class=""></path><path d="M23.51 9a1 1 0 1 0 0-2 1 1 0 0 0 0 2zM27.49 9h6a1 1 0 0 0 0-2h-6a1 1 0 0 0 0 2zM50 8h1v1a1 1 0 0 0 2 0V8h1a1 1 0 0 0 0-2h-1V5a1 1 0 0 0-2 0v1h-1a1 1 0 0 0 0 2zM4 18h1v1a1 1 0 0 0 2 0v-1h1a1 1 0 0 0 0-2H7v-1a1 1 0 0 0-2 0v1H4a1 1 0 0 0 0 2zM59 58h-3a1 1 0 0 0 0 2h3a1 1 0 0 0 0-2z" fill="#000000" opacity="1" data-original="#000000" class=""></path><path d="M1 60h51a1 1 0 0 0 0-2H36.2a30.71 30.71 0 0 0 2.65-8H41v3a2 2 0 0 0 3.36 1.47L57 42.19a3 3 0 0 0 0-4.37L44.32 25.5A2 2 0 0 0 41 27v3h-2.21c-.66-1.38-1.14-2.29-1.82-3.47a13 13 0 0 0 7-13L43.28 8a9 9 0 0 0-9-8H22.59a9 9 0 0 0-8.93 8L13 13.5a12.9 12.9 0 0 0 4.32 11.26l-8.8 3.53a3.92 3.92 0 0 0-2 1.71H5a3 3 0 0 0-3 3v14a3 3 0 0 0 3 3h13.16a30.55 30.55 0 0 0 2.62 8H1a1 1 0 0 0 0 2zm26.29-3.73a34.24 34.24 0 0 1 .29-6.27h1.82a35.11 35.11 0 0 1 .29 6.4c0 .556.13 1.104.38 1.6h-3.16a3.88 3.88 0 0 0 .38-1.73zm7.08.92c-.72 1.4-2.68.91-2.68-.88a34.94 34.94 0 0 0-.28-6.31h5.4a28.16 28.16 0 0 1-2.44 7.19zM36.57 30H23.44a3.94 3.94 0 0 0 .56-2.15c.645.1 1.297.15 1.95.15 5 0 6.6.19 9.19-.68.63 1.12 1.07 1.96 1.43 2.68zM15 13.73l.64-5.54A7 7 0 0 1 22.59 2h11.74a7 7 0 0 1 7 6.19l.64 5.54A11 11 0 0 1 31 26c-5.05 0-6 .12-7.79-.36A4 4 0 0 0 19.69 24 10.89 10.89 0 0 1 15 13.73zM9.26 30.14C20.12 25.8 19.46 26 20 26a2 2 0 0 1 .75 3.86L12.93 33a1 1 0 0 0-.61 1.07l.68 4.65a2.02 2.02 0 1 1-4 .56l-1-7a2 2 0 0 1 1.26-2.14zM4 47V33a1 1 0 0 1 1-1h1c0 .49-.06-.06 1 7.57a4.04 4.04 0 0 0 8-1.14l-.55-3.88L20.77 32H41a2 2 0 0 0 2-2v-3l12.71 12.3a1 1 0 0 1 0 1.47L43 53v-3a2 2 0 0 0-2-2H5a1 1 0 0 1-1-1zm18.61 10.19A28.36 28.36 0 0 1 20.2 50h5.37a36.55 36.55 0 0 0-.28 6.4 1.42 1.42 0 0 1-2.68.79z" fill="#000000" opacity="1" data-original="#000000" class=""></path><path d="M12 44H8a1 1 0 0 0 0 2h4a1 1 0 0 0 0-2zM42 45a1 1 0 0 0-1-1H17a1 1 0 0 0 0 2h24a1 1 0 0 0 1-1z" fill="#000000" opacity="1" data-original="#000000" class=""></path></g></g></g></svg>